<svg xmlns="http://www.w3.org/2000/svg" version="1.1" xmlns:xlink="http://www.w3.org/1999/xlink" xmlns:svgjs="http://svgjs.com/svgjs" width="1440" height="560" preserveAspectRatio="none" viewBox="0 0 1440 560"><g mask="url(&quot;#SvgjsMask1058&quot;)" fill="none"><rect width="99.84" height="99.84" clip-path="url(&quot;#SvgjsClipPath1059&quot;)" x="498.62" y="30.86" fill="url(#SvgjsPattern1060)" transform="rotate(248.8, 548.54, 80.78)"></rect><path d="M200.21 441.57a5.6 5.6 0 1 0 10.47 3.97 5.6 5.6 0 1 0-10.47-3.97zM215.17 447.25a5.6 5.6 0 1 0 10.47 3.97 5.6 5.6 0 1 0-10.47-3.97zM230.13 452.93a5.6 5.6 0 1 0 10.47 3.97 5.6 5.6 0 1 0-10.47-3.97zM245.08 458.61a5.6 5.6 0 1 0 10.47 3.97 5.6 5.6 0 1 0-10.47-3.97zM164.61 445.17a5.6 5.6 0 1 0 10.47 3.97 5.6 5.6 0 1 0-10.47-3.97zM179.57 450.85a5.6 5.6 0 1 0 10.47 3.97 5.6 5.6 0 1 0-10.47-3.97zM194.53 456.53a5.6 5.6 0 1 0 10.47 3.97 5.6 5.6 0 1 0-10.47-3.97zM209.49 462.21a5.6 5.6 0 1 0 10.47 3.97 5.6 5.6 0 1 0-10.47-3.97zM129.02 448.77a5.6 5.6 0 1 0 10.47 3.97 5.6 5.6 0 1 0-10.47-3.97zM143.98 454.45a5.6 5.6 0 1 0 10.47 3.97 5.6 5.6 0 1 0-10.47-3.97zM158.93 460.13a5.6 5.6 0 1 0 10.48 3.97 5.6 5.6 0 1 0-10.48-3.97zM173.89 465.81a5.6 5.6 0 1 0 10.47 3.97 5.6 5.6 0 1 0-10.47-3.97z" stroke="rgba(0, 70, 67, 1)" stroke-width="1" stroke-dasharray="2, 2"></path><rect width="96" height="96" clip-path="url(&quot;#SvgjsClipPath1061&quot;)" x="656.11" y="333.97" fill="url(#SvgjsPattern1062)" transform="rotate(332.63, 704.11, 381.97)"></rect><circle r="46.666666666666664" cx="1143.87" cy="216.4" stroke="rgba(0, 70, 67, 1)" stroke-width="2.75" stroke-dasharray="4, 4"></circle><rect width="288" height="288" clip-path="url(&quot;#SvgjsClipPath1063&quot;)" x="703.04" y="35.95" fill="url(#SvgjsPattern1064)" transform="rotate(97.06, 847.04, 179.95)"></rect><path d="M1200.8400000000001 417.78000000000003 L1116.44 542.97L1263.1355541438354 584.8705541438353z" stroke="rgba(0, 70, 67, 1)" stroke-width="1.11" stroke-dasharray="3, 3"></path><path d="M620.06 492.16L624.15 504.3 613.21 510.95 617.29 523.08 606.35 529.73 610.44 541.87 599.49 548.52M612.55 489.42L616.64 501.55 605.69 508.2 609.78 520.34 598.84 526.99 602.92 539.13 591.98 545.78" stroke="rgba(0, 70, 67, 1)" stroke-width="2.19" stroke-dasharray="3, 3"></path><circle r="74.34245655705134" cx="467.35" cy="286.76" fill="rgba(0, 70, 67, 1)"></circle><path d="M197.87 282.67 L208.16000000000003 326.75L223.48882110814145 284.23617889185863z" stroke="rgba(0, 70, 67, 1)" stroke-width="1" stroke-dasharray="4, 4"></path><path d="M696.99 75.27a5.6 5.6 0 1 0 8.75-7 5.6 5.6 0 1 0-8.75 7zM709.48 65.27a5.6 5.6 0 1 0 8.75-7 5.6 5.6 0 1 0-8.75 7zM721.97 55.27a5.6 5.6 0 1 0 8.75-7 5.6 5.6 0 1 0-8.75 7zM734.46 45.27a5.6 5.6 0 1 0 8.75-7 5.6 5.6 0 1 0-8.75 7z" fill="rgba(0, 70, 67, 1)"></path><rect width="97" height="97" clip-path="url(&quot;#SvgjsClipPath1065&quot;)" x="197.9" y="16.21" fill="url(#SvgjsPattern1066)" transform="rotate(22.4, 246.4, 64.71)"></rect><path d="M147.88 367.54L160.52 369.62 161.26 382.4 173.9 384.48 174.64 397.27 187.28 399.35 188.02 412.13M141.93 372.89L154.57 374.97 155.31 387.76 167.95 389.84 168.69 402.62 181.33 404.7 182.07 417.49" stroke="rgba(0, 70, 67, 1)" stroke-width="1" stroke-dasharray="3, 2"></path></g><defs><mask id="SvgjsMask1058"><rect width="1440" height="560" fill="#ffffff"></rect></mask><pattern x="0" y="0" width="8.32" height="8.32" patternUnits="userSpaceOnUse" id="SvgjsPattern1060"><path d="M0 8.32L4.16 0L8.32 8.32" stroke="rgba(0, 70, 67, 1)" fill="none"></path></pattern><clipPath id="SvgjsClipPath1059"><circle r="24.96" cx="548.54" cy="80.78"></circle></clipPath><pattern x="0" y="0" width="6" height="6" patternUnits="userSpaceOnUse" id="SvgjsPattern1062"><path d="M3 1L3 5M1 3L5 3" stroke="rgba(0, 70, 67, 1)" fill="none" stroke-width="1"></path></pattern><clipPath id="SvgjsClipPath1061"><circle r="24" cx="704.11" cy="381.97"></circle></clipPath><pattern x="0" y="0" width="288" height="6" patternUnits="userSpaceOnUse" id="SvgjsPattern1064"><rect width="288" height="3" x="0" y="0" fill="rgba(0, 70, 67, 1)"></rect><rect width="288" height="3" x="0" y="3" fill="rgba(0, 0, 0, 0)"></rect></pattern><clipPath id="SvgjsClipPath1063"><circle r="72" cx="847.04" cy="179.95"></circle></clipPath><pattern x="0" y="0" width="9.7" height="9.7" patternUnits="userSpaceOnUse" id="SvgjsPattern1066"><path d="M0 9.7L4.85 0L9.7 9.7" stroke="rgba(0, 70, 67, 1)" fill="none"></path></pattern><clipPath id="SvgjsClipPath1065"><circle r="24.25" cx="246.4" cy="64.71"></circle></clipPath></defs></svg>