<svg xmlns="http://www.w3.org/2000/svg" version="1.1" xmlns:xlink="http://www.w3.org/1999/xlink" xmlns:svgjs="http://svgjs.com/svgjs" width="1440" height="560" preserveAspectRatio="none" viewBox="0 0 1440 560"><g mask="url(&quot;#SvgjsMask1021&quot;)" fill="none"><circle r="46.666666666666664" cx="1315.6" cy="461.81" stroke="rgba(171, 209, 198, 1)" stroke-width="2.83" stroke-dasharray="3, 3"></circle><path d="M1419.5 603.76 L1541.48 713.5500000000001L1412.2867354241957 726.8582645758042z" stroke="rgba(171, 209, 198, 1)" stroke-width="2.56" stroke-dasharray="4, 4"></path><rect width="98.6" height="98.6" clip-path="url(&quot;#SvgjsClipPath1022&quot;)" x="783.87" y="146.9" fill="url(#SvgjsPattern1023)" transform="rotate(65.77, 833.17, 196.2)"></rect><path d="M214.89 338.56 L77.5 251.81L34.232792834460014 407.14720716553995z" stroke="rgba(171, 209, 198, 1)" stroke-width="2.08" stroke-dasharray="3, 3"></path><rect width="269.92" height="269.92" clip-path="url(&quot;#SvgjsClipPath1024&quot;)" x="476.43" y="418.04" fill="url(#SvgjsPattern1025)" transform="rotate(63.71, 611.39, 553)"></rect><circle r="46.666666666666664" cx="1276.3" cy="366.23" stroke="rgba(171, 209, 198, 1)" stroke-width="1.38"></circle><path d="M587.86 158.3L582.57 146.64 592.78 138.91 587.49 127.25 597.7 119.53 592.41 107.87 602.62 100.14M595.62 160.27L590.32 148.6 600.54 140.88 595.24 129.22 605.46 121.49 600.16 109.83 610.38 102.11M603.37 162.23L598.08 150.57 608.29 142.85 603 131.19 613.21 123.46 607.92 111.8 618.13 104.08" stroke="rgba(171, 209, 198, 1)" stroke-width="1" stroke-dasharray="3, 3"></path><rect width="94" height="94" clip-path="url(&quot;#SvgjsClipPath1026&quot;)" x="289.9" y="134.31" fill="url(#SvgjsPattern1027)" transform="rotate(357.24, 336.9, 181.31)"></rect><path d="M777.74 87.94a5.6 5.6 0 1 0 4.44 10.28 5.6 5.6 0 1 0-4.44-10.28zM784.09 102.62a5.6 5.6 0 1 0 4.45 10.28 5.6 5.6 0 1 0-4.45-10.28zM790.44 117.3a5.6 5.6 0 1 0 4.45 10.28 5.6 5.6 0 1 0-4.45-10.28zM796.8 131.99a5.6 5.6 0 1 0 4.45 10.28 5.6 5.6 0 1 0-4.45-10.28z" fill="rgba(171, 209, 198, 1)"></path><circle r="79.74798804182512" cx="432.73" cy="159.9" stroke="rgba(171, 209, 198, 1)" stroke-width="1" stroke-dasharray="3, 3"></circle><rect width="336" height="336" clip-path="url(&quot;#SvgjsClipPath1028&quot;)" x="298.81" y="248.34" fill="url(#SvgjsPattern1029)" transform="rotate(314.28, 466.81, 416.34)"></rect><circle r="78.55861220040406" cx="169.65" cy="497.94" fill="rgba(171, 209, 198, 1)"></circle></g><defs><mask id="SvgjsMask1021"><rect width="1440" height="560" fill="#ffffff"></rect></mask><pattern x="0" y="0" width="98.6" height="9.86" patternUnits="userSpaceOnUse" id="SvgjsPattern1023"><rect width="98.6" height="4.93" x="0" y="0" fill="rgba(171, 209, 198, 1)"></rect><rect width="98.6" height="4.93" x="0" y="4.93" fill="rgba(0, 0, 0, 0)"></rect></pattern><clipPath id="SvgjsClipPath1022"><circle r="24.65" cx="833.17" cy="196.2"></circle></clipPath><pattern x="0" y="0" width="9.64" height="9.64" patternUnits="userSpaceOnUse" id="SvgjsPattern1025"><path d="M4.82 1L4.82 8.64M1 4.82L8.64 4.82" stroke="rgba(171, 209, 198, 1)" fill="none" stroke-width="3.18"></path></pattern><clipPath id="SvgjsClipPath1024"><circle r="67.48" cx="611.39" cy="553"></circle></clipPath><pattern x="0" y="0" width="94" height="9.4" patternUnits="userSpaceOnUse" id="SvgjsPattern1027"><rect width="94" height="4.7" x="0" y="0" fill="rgba(171, 209, 198, 1)"></rect><rect width="94" height="4.7" x="0" y="4.7" fill="rgba(0, 0, 0, 0)"></rect></pattern><clipPath id="SvgjsClipPath1026"><circle r="23.5" cx="336.9" cy="181.31"></circle></clipPath><pattern x="0" y="0" width="336" height="6" patternUnits="userSpaceOnUse" id="SvgjsPattern1029"><rect width="336" height="3" x="0" y="0" fill="rgba(171, 209, 198, 1)"></rect><rect width="336" height="3" x="0" y="3" fill="rgba(0, 0, 0, 0)"></rect></pattern><clipPath id="SvgjsClipPath1028"><circle r="84" cx="466.81" cy="416.34"></circle></clipPath></defs></svg>